<svg xmlns="http://www.w3.org/2000/svg" viewBox="0 0 247.28 69.58"><defs><style>.a{fill:#222;}.b{fill:#fff;}</style></defs><title>colegiada_LR_065</title><path class="a" d="M89.51,30.51a4.69,4.69,0,0,0-1-1.22,4.37,4.37,0,0,0-1.24-.75,4.09,4.09,0,0,0-1.42-.25,4.37,4.37,0,0,0-2.32.6,4.86,4.86,0,0,0-1.59,1.6A7.47,7.47,0,0,0,81,32.74a11.49,11.49,0,0,0,0,5.13,7.42,7.42,0,0,0,.92,2.26,4.83,4.83,0,0,0,1.59,1.59,4.21,4.21,0,0,0,2.32.61,3.55,3.55,0,0,0,1.72-.41,3.83,3.83,0,0,0,1.31-1.09,5.84,5.84,0,0,0,.9-1.62,8,8,0,0,0,.44-2h1.29a9.67,9.67,0,0,1-.59,2.66,6.52,6.52,0,0,1-1.18,2A4.76,4.76,0,0,1,88,43.14a5.13,5.13,0,0,1-2.18.45A5.62,5.62,0,0,1,83,42.91a6.11,6.11,0,0,1-2-1.82,8.3,8.3,0,0,1-1.2-2.64,12.64,12.64,0,0,1,0-6.31A8.41,8.41,0,0,1,81,29.5a6.18,6.18,0,0,1,2-1.84A5.78,5.78,0,0,1,85.9,27a5.6,5.6,0,0,1,1.9.34A5.43,5.43,0,0,1,90.73,30a6.11,6.11,0,0,1,.64,2.21h-1.3A5.4,5.4,0,0,0,89.51,30.51Z"/><path class="a" d="M99.46,31.91a4.61,4.61,0,0,1,1.46,1.32,6.05,6.05,0,0,1,.89,1.93,9.14,9.14,0,0,1,0,4.72,6,6,0,0,1-.89,1.93,4.37,4.37,0,0,1-1.46,1.31,4.41,4.41,0,0,1-4,0A4.37,4.37,0,0,1,94,41.81a6,6,0,0,1-.9-1.93,9.43,9.43,0,0,1,0-4.72,6.08,6.08,0,0,1,.9-1.93,4.51,4.51,0,0,1,1.46-1.32,3.88,3.88,0,0,1,2-.49A4,4,0,0,1,99.46,31.91ZM96,33a3.54,3.54,0,0,0-1.07,1.11,5.33,5.33,0,0,0-.65,1.58,7.47,7.47,0,0,0,0,3.6,5.33,5.33,0,0,0,.65,1.58A3.31,3.31,0,0,0,96,42a2.68,2.68,0,0,0,1.51.43A2.62,2.62,0,0,0,99,42a3.47,3.47,0,0,0,1.08-1.11,5.92,5.92,0,0,0,.65-1.58,7.47,7.47,0,0,0,0-3.6,6.05,6.05,0,0,0-.65-1.58A3.53,3.53,0,0,0,99,33a2.83,2.83,0,0,0-3,0Z"/><path class="a" d="M105.13,27.33v16h-1.2v-16Z"/><path class="a" d="M108.32,39.48a4.51,4.51,0,0,0,.58,1.46,3.3,3.3,0,0,0,1,1.07,2.39,2.39,0,0,0,1.46.43,2.63,2.63,0,0,0,2.06-.81,4.41,4.41,0,0,0,1-2.14h1.2a6,6,0,0,1-1.4,3,3.79,3.79,0,0,1-2.89,1.07,3.8,3.8,0,0,1-3.38-1.8,6.2,6.2,0,0,1-.79-1.94,10.23,10.23,0,0,1-.25-2.34,10,10,0,0,1,.25-2.24,6.63,6.63,0,0,1,.79-2,4.36,4.36,0,0,1,1.38-1.39,3.88,3.88,0,0,1,2-.52,3.54,3.54,0,0,1,2,.56,4.55,4.55,0,0,1,1.37,1.46,6.74,6.74,0,0,1,.75,2.08,11.19,11.19,0,0,1,.19,2.38h-7.56A7.16,7.16,0,0,0,108.32,39.48Zm5.94-4.31a4.86,4.86,0,0,0-.62-1.3,3,3,0,0,0-1-.92,2.56,2.56,0,0,0-1.3-.35A2.6,2.6,0,0,0,110,33a3.15,3.15,0,0,0-1,.92,4.56,4.56,0,0,0-.64,1.31,7.29,7.29,0,0,0-.31,1.53h6.36A5.69,5.69,0,0,0,114.26,35.17Z"/><path class="a" d="M125.39,44.65a4.65,4.65,0,0,1-.76,1.75,3.31,3.31,0,0,1-1.34,1.09,4.75,4.75,0,0,1-2,.38,5.46,5.46,0,0,1-1.45-.2,3.48,3.48,0,0,1-1.26-.63,3.36,3.36,0,0,1-.94-1.08,3.65,3.65,0,0,1-.42-1.58h1.2a2.62,2.62,0,0,0,.37,1.09,2.21,2.21,0,0,0,.66.7,2.53,2.53,0,0,0,.87.39,3.35,3.35,0,0,0,1,.13,2.68,2.68,0,0,0,2.42-1.12,5.75,5.75,0,0,0,.75-3.22V40.78h0a4.11,4.11,0,0,1-1.23,1.73,3,3,0,0,1-1.9.64,4.22,4.22,0,0,1-2-.45A3.82,3.82,0,0,1,118,41.43a5.35,5.35,0,0,1-.79-1.89,10.55,10.55,0,0,1-.25-2.31,8.14,8.14,0,0,1,.3-2.25,5.79,5.79,0,0,1,.86-1.85,4,4,0,0,1,1.39-1.25,3.89,3.89,0,0,1,1.89-.46,3.1,3.1,0,0,1,1,.18,2.91,2.91,0,0,1,.89.5,3.88,3.88,0,0,1,.71.75,3.67,3.67,0,0,1,.49.89h0v-2h1.2v10.6A10.5,10.5,0,0,1,125.39,44.65Zm-2.76-3.07a3.29,3.29,0,0,0,1-1,4.81,4.81,0,0,0,.61-1.46,7.52,7.52,0,0,0,.2-1.7,8.11,8.11,0,0,0-.18-1.7,5.73,5.73,0,0,0-.55-1.55,3.22,3.22,0,0,0-1-1.11,2.45,2.45,0,0,0-1.46-.43,2.52,2.52,0,0,0-1.46.42,3.23,3.23,0,0,0-1,1.08,5,5,0,0,0-.59,1.53,8.69,8.69,0,0,0-.18,1.76,8.13,8.13,0,0,0,.19,1.7,4.77,4.77,0,0,0,.59,1.46,3.4,3.4,0,0,0,1,1,2.64,2.64,0,0,0,1.45.39A2.41,2.41,0,0,0,122.63,41.58Z"/><path class="a" d="M129.13,27.33v2.25h-1.2V27.33Zm0,4.42V43.29h-1.2V31.75Z"/><path class="a" d="M131.68,33.54a3.49,3.49,0,0,1,.83-1.21,3.4,3.4,0,0,1,1.23-.69,5.12,5.12,0,0,1,1.56-.22,6.31,6.31,0,0,1,1.3.14,3,3,0,0,1,1.16.55,3.13,3.13,0,0,1,.84,1.13,4.54,4.54,0,0,1,.32,1.89v6.12c0,.57.24.85.71.85A.78.78,0,0,0,140,42v1.19l-.37.07h-.41a1.56,1.56,0,0,1-.74-.15.93.93,0,0,1-.42-.41,1.55,1.55,0,0,1-.2-.64,4.41,4.41,0,0,1-.05-.81h0a7.52,7.52,0,0,1-.66,1,3.41,3.41,0,0,1-.74.73,2.94,2.94,0,0,1-.93.44,4.09,4.09,0,0,1-1.25.16,4,4,0,0,1-1.29-.19,2.84,2.84,0,0,1-1-.6,2.92,2.92,0,0,1-.7-1,4.07,4.07,0,0,1-.26-1.51,3.3,3.3,0,0,1,.46-1.89,2.88,2.88,0,0,1,1.21-1,5.94,5.94,0,0,1,1.7-.5l1.91-.28a3.93,3.93,0,0,0,.67-.12,1,1,0,0,0,.47-.23,1,1,0,0,0,.3-.46,2.41,2.41,0,0,0,.1-.76,2.75,2.75,0,0,0-.2-1.17A1.7,1.7,0,0,0,137,33a2,2,0,0,0-.82-.37,4.85,4.85,0,0,0-1-.1,2.42,2.42,0,0,0-2.63,2.64h-1.2A5.33,5.33,0,0,1,131.68,33.54Zm6,3.44a.69.69,0,0,1-.44.36,4,4,0,0,1-.57.16c-.51.1-1,.2-1.58.28a6.74,6.74,0,0,0-1.47.37,3,3,0,0,0-1.1.7,1.86,1.86,0,0,0-.43,1.31,2.43,2.43,0,0,0,.18,1,2.2,2.2,0,0,0,.49.71,1.75,1.75,0,0,0,.71.46,2.05,2.05,0,0,0,.81.16,3.33,3.33,0,0,0,1.32-.25,3,3,0,0,0,1.09-.71,3.64,3.64,0,0,0,.75-1.14,3.93,3.93,0,0,0,.27-1.52V37Z"/><path class="a" d="M148.87,43.29V41.1h0a3.52,3.52,0,0,1-.56,1,3.75,3.75,0,0,1-.85.79,4.25,4.25,0,0,1-1,.5,3.31,3.31,0,0,1-1.08.18,3.79,3.79,0,0,1-1.95-.48,4.05,4.05,0,0,1-1.38-1.32,6.17,6.17,0,0,1-.82-1.94,10.28,10.28,0,0,1,0-4.68,6.27,6.27,0,0,1,.82-1.94,4.18,4.18,0,0,1,1.38-1.33,3.7,3.7,0,0,1,1.95-.49,4,4,0,0,1,1.08.15,3.69,3.69,0,0,1,1,.48,3.42,3.42,0,0,1,.81.8,3.73,3.73,0,0,1,.55,1.09h0V27.3H150v16Zm-6.58-4a5.19,5.19,0,0,0,.57,1.57,3.2,3.2,0,0,0,1,1.13,2.39,2.39,0,0,0,1.46.44,2.83,2.83,0,0,0,1.62-.44A3.37,3.37,0,0,0,148,40.86a4.59,4.59,0,0,0,.59-1.57,8.89,8.89,0,0,0,0-3.56,4.75,4.75,0,0,0-.59-1.57A3.58,3.58,0,0,0,146.94,33a2.91,2.91,0,0,0-1.62-.44,2.46,2.46,0,0,0-1.46.44,3.49,3.49,0,0,0-1,1.13,5.19,5.19,0,0,0-.57,1.57,8.88,8.88,0,0,0-.18,1.78,9,9,0,0,0,.18,1.79Z"/><path class="a" d="M152.51,33.54a3.24,3.24,0,0,1,.83-1.21,3.4,3.4,0,0,1,1.23-.69,5.12,5.12,0,0,1,1.56-.22,6.21,6.21,0,0,1,1.29.14,3,3,0,0,1,1.16.55,2.84,2.84,0,0,1,.84,1.13,4.71,4.71,0,0,1,.33,1.89v6.12c0,.57.23.85.7.85a.85.85,0,0,0,.38-.09V43.2l-.37.07h-.41a1.55,1.55,0,0,1-.73-.15,1,1,0,0,1-.43-.41,1.6,1.6,0,0,1-.2-.64,7.34,7.34,0,0,1-.05-.81h0a9.51,9.51,0,0,1-.65,1,3.7,3.7,0,0,1-.75.73,2.94,2.94,0,0,1-.93.44,4.09,4.09,0,0,1-1.25.16,3.93,3.93,0,0,1-1.28-.19A2.83,2.83,0,0,1,152,41.8a4.06,4.06,0,0,1-.25-1.51,3.38,3.38,0,0,1,.45-1.89,3,3,0,0,1,1.21-1,5.94,5.94,0,0,1,1.7-.5l1.91-.28a3.93,3.93,0,0,0,.67-.12,1,1,0,0,0,.48-.23,1.1,1.1,0,0,0,.29-.46,2.16,2.16,0,0,0,.11-.76,3.1,3.1,0,0,0-.2-1.17,1.75,1.75,0,0,0-.56-.73,2.06,2.06,0,0,0-.81-.37,4.85,4.85,0,0,0-1-.1,2.72,2.72,0,0,0-1.87.64,2.63,2.63,0,0,0-.76,2h-1.2A4.92,4.92,0,0,1,152.51,33.54Zm6,3.44a.69.69,0,0,1-.44.36,4,4,0,0,1-.57.16c-.51.1-1,.2-1.57.28a7.46,7.46,0,0,0-1.48.37,2.92,2.92,0,0,0-1.09.7,1.86,1.86,0,0,0-.43,1.31,2.43,2.43,0,0,0,.18,1,2.17,2.17,0,0,0,.48.71,1.85,1.85,0,0,0,.71.46,2.1,2.1,0,0,0,.82.16,3.47,3.47,0,0,0,1.31-.25,3.06,3.06,0,0,0,1.1-.71,3.45,3.45,0,0,0,.74-1.14,4.14,4.14,0,0,0,.28-1.52V37Z"/><path class="a" d="M168.63,31.75v2h0a3.34,3.34,0,0,1,1.22-1.69,3.25,3.25,0,0,1,1.93-.63,4.23,4.23,0,0,1,1.72.31,2.84,2.84,0,0,1,1.12.88,3.77,3.77,0,0,1,.59,1.4,9.68,9.68,0,0,1,.17,1.86V43.3h-1.2V36.1a8,8,0,0,0-.12-1.38,3.1,3.1,0,0,0-.4-1.1,2,2,0,0,0-.77-.74,2.52,2.52,0,0,0-1.21-.27,2.68,2.68,0,0,0-1.28.3,2.87,2.87,0,0,0-1,.83,4.15,4.15,0,0,0-.61,1.25,6.1,6.1,0,0,0-.23,1.58V43.3h-1.2V31.76Z"/><path class="a" d="M178.31,34.77a2.68,2.68,0,0,1-.94-.8,3.76,3.76,0,0,1-.58-1.21,5.28,5.28,0,0,1-.2-1.48,5.21,5.21,0,0,1,.2-1.47,3.75,3.75,0,0,1,.58-1.21,2.71,2.71,0,0,1,2.25-1.1,3.25,3.25,0,0,1,1.41.3,2.88,2.88,0,0,1,1,.8,4,4,0,0,1,.6,1.21,5.6,5.6,0,0,1,.2,1.47,5.68,5.68,0,0,1-.2,1.48A3.81,3.81,0,0,1,182,34a2.77,2.77,0,0,1-1,.8,3.27,3.27,0,0,1-1.41.29A2.85,2.85,0,0,1,178.31,34.77Zm2.38-.84a2.29,2.29,0,0,0,.69-.66,3.13,3.13,0,0,0,.42-.93,3.76,3.76,0,0,0,.14-1.06,3.81,3.81,0,0,0-.14-1.06,3.25,3.25,0,0,0-.42-.93,2.41,2.41,0,0,0-.69-.66,1.93,1.93,0,0,0-1-.25,1.84,1.84,0,0,0-1,.25,2.18,2.18,0,0,0-.69.66,2.7,2.7,0,0,0-.42.93,3.82,3.82,0,0,0-.15,1.06,3.77,3.77,0,0,0,.15,1.06,2.61,2.61,0,0,0,.42.93,2.07,2.07,0,0,0,.69.66,2.05,2.05,0,0,0,2,0Z"/><path class="a" d="M190.86,27.33V42h7.62v1.3h-8.92v-16Z"/><path class="a" d="M206,27.33a5.38,5.38,0,0,1,1.59.24,4,4,0,0,1,1.32.75,3.64,3.64,0,0,1,.89,1.3,4.76,4.76,0,0,1,.34,1.86,5.07,5.07,0,0,1-.67,2.64,3,3,0,0,1-2,1.43h0a2.58,2.58,0,0,1,1.1.41,2.31,2.31,0,0,1,.72.77,3.58,3.58,0,0,1,.4,1.09,8.62,8.62,0,0,1,.16,1.33v1a5.66,5.66,0,0,0,.08,1.17,7.06,7.06,0,0,0,.18,1.12,2.44,2.44,0,0,0,.33.82H209a1.78,1.78,0,0,1-.18-.55,4.92,4.92,0,0,1-.1-.67V40.78c0-.57-.07-1.13-.12-1.69a5.23,5.23,0,0,0-.37-1.5,2.54,2.54,0,0,0-.8-1.06,2.1,2.1,0,0,0-1.44-.36h-4.91v7.09h-1.3v-16Zm-.09,7.57a3.09,3.09,0,0,0,1.12-.21,2.55,2.55,0,0,0,1-.65,3.08,3.08,0,0,0,.63-1,3.2,3.2,0,0,0,.24-1.3,3.5,3.5,0,0,0-.72-2.33,2.77,2.77,0,0,0-2.21-.85H201.1v6.28Z"/><path class="a" d="M224.09,28.25a5,5,0,0,1,1.41,1.92,9.37,9.37,0,0,1,.69,2.59,21.78,21.78,0,0,1,.18,2.79,22.13,22.13,0,0,1-.18,2.82A9.27,9.27,0,0,1,225.5,41a4.74,4.74,0,0,1-1.41,1.9,4.15,4.15,0,0,1-4.73,0,4.86,4.86,0,0,1-1.42-1.9,8.94,8.94,0,0,1-.69-2.59,21.66,21.66,0,0,1-.18-2.79,22.25,22.25,0,0,1,.18-2.82,9,9,0,0,1,.69-2.59,5.07,5.07,0,0,1,1.42-1.92,4.1,4.1,0,0,1,4.73,0Zm-4.2,1.13a4.45,4.45,0,0,0-1,1.72,9.13,9.13,0,0,0-.47,2.24c-.08.8-.12,1.54-.12,2.21a14.72,14.72,0,0,0,.12,2.23,9,9,0,0,0,.47,2.23,4.53,4.53,0,0,0,1,1.74,2.77,2.77,0,0,0,3.66,0,4.46,4.46,0,0,0,1-1.74,10.54,10.54,0,0,0,.47-2.23c.07-.8.11-1.54.11-2.23a15.63,15.63,0,0,0-.11-2.21,10.15,10.15,0,0,0-.47-2.24,4.45,4.45,0,0,0-1-1.72,2.77,2.77,0,0,0-3.66,0Z"/><path class="a" d="M234.55,29.49a2.45,2.45,0,0,0-1.89-.8,2.62,2.62,0,0,0-1.89.69,4.57,4.57,0,0,0-1.12,1.75,8.94,8.94,0,0,0-.54,2.27c-.08.81-.13,1.57-.13,2.29h0a4.31,4.31,0,0,1,1.44-1.88,3.46,3.46,0,0,1,2.1-.72,4.09,4.09,0,0,1,1.82.39,4.3,4.3,0,0,1,1.38,1.09,5,5,0,0,1,.89,1.65,6.87,6.87,0,0,1,.31,2.11,6.56,6.56,0,0,1-.33,2.11,5.08,5.08,0,0,1-.93,1.67,4.16,4.16,0,0,1-1.43,1.1,4.09,4.09,0,0,1-1.82.39,4.77,4.77,0,0,1-2.1-.43,3.6,3.6,0,0,1-1.45-1.42,7.71,7.71,0,0,1-.84-2.56,21.89,21.89,0,0,1-.28-3.88,11.71,11.71,0,0,1,0-1.23,11.25,11.25,0,0,1,.22-1.62,10.81,10.81,0,0,1,.48-1.75,6.12,6.12,0,0,1,.84-1.6A4.28,4.28,0,0,1,230.64,28a3.66,3.66,0,0,1,1.86-.45,4,4,0,0,1,2.84,1,4.85,4.85,0,0,1,1.26,3.09h-1.2A3.69,3.69,0,0,0,234.55,29.49Zm-3.41,5.11a3.06,3.06,0,0,0-1,.89,3.78,3.78,0,0,0-.65,1.3,5.56,5.56,0,0,0-.22,1.62,5.92,5.92,0,0,0,.19,1.57,3.58,3.58,0,0,0,.6,1.28,2.79,2.79,0,0,0,1,.87,3.37,3.37,0,0,0,1.5.31,2.51,2.51,0,0,0,1.31-.33,3.21,3.21,0,0,0,1-.87,4.32,4.32,0,0,0,.66-1.28,5.38,5.38,0,0,0,.22-1.55,5.9,5.9,0,0,0-.22-1.61,4.26,4.26,0,0,0-.62-1.31,3.16,3.16,0,0,0-1-.89,2.85,2.85,0,0,0-1.37-.32A3.19,3.19,0,0,0,231.14,34.6Z"/><path class="a" d="M239.77,40.29a3.78,3.78,0,0,0,.7,1.15,2.9,2.9,0,0,0,1,.74,3.12,3.12,0,0,0,1.28.26,2.74,2.74,0,0,0,1.39-.35,3.44,3.44,0,0,0,1-.94,4.32,4.32,0,0,0,.67-1.36,5.87,5.87,0,0,0,.23-1.62,5.17,5.17,0,0,0-.26-1.61,4.62,4.62,0,0,0-.7-1.29,3.45,3.45,0,0,0-1.08-.86,3.12,3.12,0,0,0-1.37-.31,3.28,3.28,0,0,0-1.7.48A3.58,3.58,0,0,0,239.66,36h-1L240,27.84h6.67v1.3h-5.83L240,34.32v0a3.44,3.44,0,0,1,1.26-1.07,3.39,3.39,0,0,1,1.56-.38,4.27,4.27,0,0,1,1.86.4,4.48,4.48,0,0,1,1.41,1.11,5,5,0,0,1,.89,1.72,7,7,0,0,1,.32,2.18,6,6,0,0,1-.36,2.11,5.16,5.16,0,0,1-1,1.67,4.44,4.44,0,0,1-1.48,1.1,4.32,4.32,0,0,1-1.8.39,4.41,4.41,0,0,1-1.72-.32,3.94,3.94,0,0,1-1.38-.94,4.68,4.68,0,0,1-.92-1.51,5.7,5.7,0,0,1-.36-2h1.2A4.29,4.29,0,0,0,239.77,40.29Z"/><path class="b" d="M89.51,30.51a4.69,4.69,0,0,0-1-1.22,4.37,4.37,0,0,0-1.24-.75,4.09,4.09,0,0,0-1.42-.25,4.37,4.37,0,0,0-2.32.6,4.86,4.86,0,0,0-1.59,1.6A7.47,7.47,0,0,0,81,32.74a11.49,11.49,0,0,0,0,5.13,7.42,7.42,0,0,0,.92,2.26,4.83,4.83,0,0,0,1.59,1.59,4.21,4.21,0,0,0,2.32.61,3.55,3.55,0,0,0,1.72-.41,3.83,3.83,0,0,0,1.31-1.09,5.84,5.84,0,0,0,.9-1.62,8,8,0,0,0,.44-2h1.29a9.67,9.67,0,0,1-.59,2.66,6.52,6.52,0,0,1-1.18,2A4.76,4.76,0,0,1,88,43.14a5.13,5.13,0,0,1-2.18.45A5.62,5.62,0,0,1,83,42.91a6.11,6.11,0,0,1-2-1.82,8.3,8.3,0,0,1-1.2-2.64,12.64,12.64,0,0,1,0-6.31A8.41,8.41,0,0,1,81,29.5a6.18,6.18,0,0,1,2-1.84A5.78,5.78,0,0,1,85.9,27a5.6,5.6,0,0,1,1.9.34A5.43,5.43,0,0,1,90.73,30a6.11,6.11,0,0,1,.64,2.21h-1.3A5.4,5.4,0,0,0,89.51,30.51Z"/><path class="b" d="M99.46,31.91a4.61,4.61,0,0,1,1.46,1.32,6.05,6.05,0,0,1,.89,1.93,9.14,9.14,0,0,1,0,4.72,6,6,0,0,1-.89,1.93,4.37,4.37,0,0,1-1.46,1.31,4.41,4.41,0,0,1-4,0A4.37,4.37,0,0,1,94,41.81a6,6,0,0,1-.9-1.93,9.43,9.43,0,0,1,0-4.72,6.08,6.08,0,0,1,.9-1.93,4.51,4.51,0,0,1,1.46-1.32,3.88,3.88,0,0,1,2-.49A4,4,0,0,1,99.46,31.91ZM96,33a3.54,3.54,0,0,0-1.07,1.11,5.33,5.33,0,0,0-.65,1.58,7.47,7.47,0,0,0,0,3.6,5.33,5.33,0,0,0,.65,1.58A3.31,3.31,0,0,0,96,42a2.68,2.68,0,0,0,1.51.43A2.62,2.62,0,0,0,99,42a3.47,3.47,0,0,0,1.08-1.11,5.92,5.92,0,0,0,.65-1.58,7.47,7.47,0,0,0,0-3.6,6.05,6.05,0,0,0-.65-1.58A3.53,3.53,0,0,0,99,33a2.83,2.83,0,0,0-3,0Z"/><path class="b" d="M105.13,27.33v16h-1.2v-16Z"/><path class="b" d="M108.32,39.48a4.51,4.51,0,0,0,.58,1.46,3.3,3.3,0,0,0,1,1.07,2.39,2.39,0,0,0,1.46.43,2.63,2.63,0,0,0,2.06-.81,4.41,4.41,0,0,0,1-2.14h1.2a6,6,0,0,1-1.4,3,3.79,3.79,0,0,1-2.89,1.07,3.8,3.8,0,0,1-3.38-1.8,6.2,6.2,0,0,1-.79-1.94,10.23,10.23,0,0,1-.25-2.34,10,10,0,0,1,.25-2.24,6.63,6.63,0,0,1,.79-2,4.36,4.36,0,0,1,1.38-1.39,3.88,3.88,0,0,1,2-.52,3.54,3.54,0,0,1,2,.56,4.55,4.55,0,0,1,1.37,1.46,6.74,6.74,0,0,1,.75,2.08,11.19,11.19,0,0,1,.19,2.38h-7.56A7.16,7.16,0,0,0,108.32,39.48Zm5.94-4.31a4.86,4.86,0,0,0-.62-1.3,3,3,0,0,0-1-.92,2.56,2.56,0,0,0-1.3-.35A2.6,2.6,0,0,0,110,33a3.15,3.15,0,0,0-1,.92,4.56,4.56,0,0,0-.64,1.31,7.29,7.29,0,0,0-.31,1.53h6.36A5.69,5.69,0,0,0,114.26,35.17Z"/><path class="b" d="M125.39,44.65a4.65,4.65,0,0,1-.76,1.75,3.31,3.31,0,0,1-1.34,1.09,4.75,4.75,0,0,1-2,.38,5.46,5.46,0,0,1-1.45-.2,3.48,3.48,0,0,1-1.26-.63,3.36,3.36,0,0,1-.94-1.08,3.65,3.65,0,0,1-.42-1.58h1.2a2.62,2.62,0,0,0,.37,1.09,2.21,2.21,0,0,0,.66.7,2.53,2.53,0,0,0,.87.39,3.35,3.35,0,0,0,1,.13,2.68,2.68,0,0,0,2.42-1.12,5.75,5.75,0,0,0,.75-3.22V40.78h0a4.11,4.11,0,0,1-1.23,1.73,3,3,0,0,1-1.9.64,4.22,4.22,0,0,1-2-.45A3.82,3.82,0,0,1,118,41.43a5.35,5.35,0,0,1-.79-1.89,10.55,10.55,0,0,1-.25-2.31,8.14,8.14,0,0,1,.3-2.25,5.79,5.79,0,0,1,.86-1.85,4,4,0,0,1,1.39-1.25,3.89,3.89,0,0,1,1.89-.46,3.1,3.1,0,0,1,1,.18,2.91,2.91,0,0,1,.89.5,3.88,3.88,0,0,1,.71.75,3.67,3.67,0,0,1,.49.89h0v-2h1.2v10.6A10.5,10.5,0,0,1,125.39,44.65Zm-2.76-3.07a3.29,3.29,0,0,0,1-1,4.81,4.81,0,0,0,.61-1.46,7.52,7.52,0,0,0,.2-1.7,8.11,8.11,0,0,0-.18-1.7,5.73,5.73,0,0,0-.55-1.55,3.22,3.22,0,0,0-1-1.11,2.45,2.45,0,0,0-1.46-.43,2.52,2.52,0,0,0-1.46.42,3.23,3.23,0,0,0-1,1.08,5,5,0,0,0-.59,1.53,8.69,8.69,0,0,0-.18,1.76,8.13,8.13,0,0,0,.19,1.7,4.77,4.77,0,0,0,.59,1.46,3.4,3.4,0,0,0,1,1,2.64,2.64,0,0,0,1.45.39A2.41,2.41,0,0,0,122.63,41.58Z"/><path class="b" d="M129.13,27.33v2.25h-1.2V27.33Zm0,4.42V43.29h-1.2V31.75Z"/><path class="b" d="M131.68,33.54a3.49,3.49,0,0,1,.83-1.21,3.4,3.4,0,0,1,1.23-.69,5.12,5.12,0,0,1,1.56-.22,6.31,6.31,0,0,1,1.3.14,3,3,0,0,1,1.16.55,3.13,3.13,0,0,1,.84,1.13,4.54,4.54,0,0,1,.32,1.89v6.12c0,.57.24.85.71.85A.78.78,0,0,0,140,42v1.19l-.37.07h-.41a1.56,1.56,0,0,1-.74-.15.93.93,0,0,1-.42-.41,1.55,1.55,0,0,1-.2-.64,4.41,4.41,0,0,1-.05-.81h0a7.52,7.52,0,0,1-.66,1,3.41,3.41,0,0,1-.74.73,2.94,2.94,0,0,1-.93.44,4.09,4.09,0,0,1-1.25.16,4,4,0,0,1-1.29-.19,2.84,2.84,0,0,1-1-.6,2.92,2.92,0,0,1-.7-1,4.07,4.07,0,0,1-.26-1.51,3.3,3.3,0,0,1,.46-1.89,2.88,2.88,0,0,1,1.21-1,5.94,5.94,0,0,1,1.7-.5l1.91-.28a3.93,3.93,0,0,0,.67-.12,1,1,0,0,0,.47-.23,1,1,0,0,0,.3-.46,2.41,2.41,0,0,0,.1-.76,2.75,2.75,0,0,0-.2-1.17A1.7,1.7,0,0,0,137,33a2,2,0,0,0-.82-.37,4.85,4.85,0,0,0-1-.1,2.42,2.42,0,0,0-2.63,2.64h-1.2A5.33,5.33,0,0,1,131.68,33.54Zm6,3.44a.69.69,0,0,1-.44.36,4,4,0,0,1-.57.16c-.51.1-1,.2-1.58.28a6.74,6.74,0,0,0-1.47.37,3,3,0,0,0-1.1.7,1.86,1.86,0,0,0-.43,1.31,2.43,2.43,0,0,0,.18,1,2.2,2.2,0,0,0,.49.71,1.75,1.75,0,0,0,.71.46,2.05,2.05,0,0,0,.81.16,3.33,3.33,0,0,0,1.32-.25,3,3,0,0,0,1.09-.71,3.64,3.64,0,0,0,.75-1.14,3.93,3.93,0,0,0,.27-1.52V37Z"/><path class="b" d="M148.87,43.29V41.1h0a3.52,3.52,0,0,1-.56,1,3.75,3.75,0,0,1-.85.79,4.25,4.25,0,0,1-1,.5,3.31,3.31,0,0,1-1.08.18,3.79,3.79,0,0,1-1.95-.48,4.05,4.05,0,0,1-1.38-1.32,6.17,6.17,0,0,1-.82-1.94,10.28,10.28,0,0,1,0-4.68,6.27,6.27,0,0,1,.82-1.94,4.18,4.18,0,0,1,1.38-1.33,3.7,3.7,0,0,1,1.95-.49,4,4,0,0,1,1.08.15,3.69,3.69,0,0,1,1,.48,3.42,3.42,0,0,1,.81.8,3.73,3.73,0,0,1,.55,1.09h0V27.3H150v16Zm-6.58-4a5.19,5.19,0,0,0,.57,1.57,3.2,3.2,0,0,0,1,1.13,2.39,2.39,0,0,0,1.46.44,2.83,2.83,0,0,0,1.62-.44A3.37,3.37,0,0,0,148,40.86a4.59,4.59,0,0,0,.59-1.57,8.89,8.89,0,0,0,0-3.56,4.75,4.75,0,0,0-.59-1.57A3.58,3.58,0,0,0,146.94,33a2.91,2.91,0,0,0-1.62-.44,2.46,2.46,0,0,0-1.46.44,3.49,3.49,0,0,0-1,1.13,5.19,5.19,0,0,0-.57,1.57,8.88,8.88,0,0,0-.18,1.78,9,9,0,0,0,.18,1.79Z"/><path class="b" d="M152.51,33.54a3.24,3.24,0,0,1,.83-1.21,3.4,3.4,0,0,1,1.23-.69,5.12,5.12,0,0,1,1.56-.22,6.21,6.21,0,0,1,1.29.14,3,3,0,0,1,1.16.55,2.84,2.84,0,0,1,.84,1.13,4.71,4.71,0,0,1,.33,1.89v6.12c0,.57.23.85.7.85a.85.85,0,0,0,.38-.09V43.2l-.37.07h-.41a1.55,1.55,0,0,1-.73-.15,1,1,0,0,1-.43-.41,1.6,1.6,0,0,1-.2-.64,7.34,7.34,0,0,1-.05-.81h0a9.51,9.51,0,0,1-.65,1,3.7,3.7,0,0,1-.75.73,2.94,2.94,0,0,1-.93.44,4.09,4.09,0,0,1-1.25.16,3.93,3.93,0,0,1-1.28-.19A2.83,2.83,0,0,1,152,41.8a4.06,4.06,0,0,1-.25-1.51,3.38,3.38,0,0,1,.45-1.89,3,3,0,0,1,1.21-1,5.94,5.94,0,0,1,1.7-.5l1.91-.28a3.93,3.93,0,0,0,.67-.12,1,1,0,0,0,.48-.23,1.1,1.1,0,0,0,.29-.46,2.16,2.16,0,0,0,.11-.76,3.1,3.1,0,0,0-.2-1.17,1.75,1.75,0,0,0-.56-.73,2.06,2.06,0,0,0-.81-.37,4.85,4.85,0,0,0-1-.1,2.72,2.72,0,0,0-1.87.64,2.63,2.63,0,0,0-.76,2h-1.2A4.92,4.92,0,0,1,152.51,33.54Zm6,3.44a.69.69,0,0,1-.44.36,4,4,0,0,1-.57.16c-.51.1-1,.2-1.57.28a7.46,7.46,0,0,0-1.48.37,2.92,2.92,0,0,0-1.09.7,1.86,1.86,0,0,0-.43,1.31,2.43,2.43,0,0,0,.18,1,2.17,2.17,0,0,0,.48.71,1.85,1.85,0,0,0,.71.46,2.1,2.1,0,0,0,.82.16,3.47,3.47,0,0,0,1.31-.25,3.06,3.06,0,0,0,1.1-.71,3.45,3.45,0,0,0,.74-1.14,4.14,4.14,0,0,0,.28-1.52V37Z"/><path class="b" d="M168.63,31.75v2h0a3.34,3.34,0,0,1,1.22-1.69,3.25,3.25,0,0,1,1.93-.63,4.23,4.23,0,0,1,1.72.31,2.84,2.84,0,0,1,1.12.88,3.77,3.77,0,0,1,.59,1.4,9.68,9.68,0,0,1,.17,1.86V43.3h-1.2V36.1a8,8,0,0,0-.12-1.38,3.1,3.1,0,0,0-.4-1.1,2,2,0,0,0-.77-.74,2.52,2.52,0,0,0-1.21-.27,2.68,2.68,0,0,0-1.28.3,2.87,2.87,0,0,0-1,.83,4.15,4.15,0,0,0-.61,1.25,6.1,6.1,0,0,0-.23,1.58V43.3h-1.2V31.76Z"/><path class="b" d="M178.31,34.77a2.68,2.68,0,0,1-.94-.8,3.76,3.76,0,0,1-.58-1.21,5.28,5.28,0,0,1-.2-1.48,5.21,5.21,0,0,1,.2-1.47,3.75,3.75,0,0,1,.58-1.21,2.71,2.71,0,0,1,2.25-1.1,3.25,3.25,0,0,1,1.41.3,2.88,2.88,0,0,1,1,.8,4,4,0,0,1,.6,1.21,5.6,5.6,0,0,1,.2,1.47,5.68,5.68,0,0,1-.2,1.48A3.81,3.81,0,0,1,182,34a2.77,2.77,0,0,1-1,.8,3.27,3.27,0,0,1-1.41.29A2.85,2.85,0,0,1,178.31,34.77Zm2.38-.84a2.29,2.29,0,0,0,.69-.66,3.13,3.13,0,0,0,.42-.93,3.76,3.76,0,0,0,.14-1.06,3.81,3.81,0,0,0-.14-1.06,3.25,3.25,0,0,0-.42-.93,2.41,2.41,0,0,0-.69-.66,1.93,1.93,0,0,0-1-.25,1.84,1.84,0,0,0-1,.25,2.18,2.18,0,0,0-.69.66,2.7,2.7,0,0,0-.42.93,3.82,3.82,0,0,0-.15,1.06,3.77,3.77,0,0,0,.15,1.06,2.61,2.61,0,0,0,.42.93,2.07,2.07,0,0,0,.69.66,2.05,2.05,0,0,0,2,0Z"/><path class="b" d="M190.86,27.33V42h7.62v1.3h-8.92v-16Z"/><path class="b" d="M206,27.33a5.38,5.38,0,0,1,1.59.24,4,4,0,0,1,1.32.75,3.64,3.64,0,0,1,.89,1.3,4.76,4.76,0,0,1,.34,1.86,5.07,5.07,0,0,1-.67,2.64,3,3,0,0,1-2,1.43h0a2.58,2.58,0,0,1,1.1.41,2.31,2.31,0,0,1,.72.77,3.58,3.58,0,0,1,.4,1.09,8.62,8.62,0,0,1,.16,1.33v1a5.66,5.66,0,0,0,.08,1.17,7.06,7.06,0,0,0,.18,1.12,2.44,2.44,0,0,0,.33.82H209a1.78,1.78,0,0,1-.18-.55,4.92,4.92,0,0,1-.1-.67V40.78c0-.57-.07-1.13-.12-1.69a5.23,5.23,0,0,0-.37-1.5,2.54,2.54,0,0,0-.8-1.06,2.1,2.1,0,0,0-1.44-.36h-4.91v7.09h-1.3v-16Zm-.09,7.57a3.09,3.09,0,0,0,1.12-.21,2.55,2.55,0,0,0,1-.65,3.08,3.08,0,0,0,.63-1,3.2,3.2,0,0,0,.24-1.3,3.5,3.5,0,0,0-.72-2.33,2.77,2.77,0,0,0-2.21-.85H201.1v6.28Z"/><path class="b" d="M224.09,28.25a5,5,0,0,1,1.41,1.92,9.37,9.37,0,0,1,.69,2.59,21.78,21.78,0,0,1,.18,2.79,22.13,22.13,0,0,1-.18,2.82A9.27,9.27,0,0,1,225.5,41a4.74,4.74,0,0,1-1.41,1.9,4.15,4.15,0,0,1-4.73,0,4.86,4.86,0,0,1-1.42-1.9,8.94,8.94,0,0,1-.69-2.59,21.66,21.66,0,0,1-.18-2.79,22.25,22.25,0,0,1,.18-2.82,9,9,0,0,1,.69-2.59,5.07,5.07,0,0,1,1.42-1.92,4.1,4.1,0,0,1,4.73,0Zm-4.2,1.13a4.45,4.45,0,0,0-1,1.72,9.13,9.13,0,0,0-.47,2.24c-.08.8-.12,1.54-.12,2.21a14.72,14.72,0,0,0,.12,2.23,9,9,0,0,0,.47,2.23,4.53,4.53,0,0,0,1,1.74,2.77,2.77,0,0,0,3.66,0,4.46,4.46,0,0,0,1-1.74,10.54,10.54,0,0,0,.47-2.23c.07-.8.11-1.54.11-2.23a15.63,15.63,0,0,0-.11-2.21,10.15,10.15,0,0,0-.47-2.24,4.45,4.45,0,0,0-1-1.72,2.77,2.77,0,0,0-3.66,0Z"/><path class="b" d="M234.55,29.49a2.45,2.45,0,0,0-1.89-.8,2.62,2.62,0,0,0-1.89.69,4.57,4.57,0,0,0-1.12,1.75,8.94,8.94,0,0,0-.54,2.27c-.08.81-.13,1.57-.13,2.29h0a4.31,4.31,0,0,1,1.44-1.88,3.46,3.46,0,0,1,2.1-.72,4.09,4.09,0,0,1,1.82.39,4.3,4.3,0,0,1,1.38,1.09,5,5,0,0,1,.89,1.65,6.87,6.87,0,0,1,.31,2.11,6.56,6.56,0,0,1-.33,2.11,5.08,5.08,0,0,1-.93,1.67,4.16,4.16,0,0,1-1.43,1.1,4.09,4.09,0,0,1-1.82.39,4.77,4.77,0,0,1-2.1-.43,3.6,3.6,0,0,1-1.45-1.42,7.71,7.71,0,0,1-.84-2.56,21.89,21.89,0,0,1-.28-3.88,11.71,11.71,0,0,1,0-1.23,11.25,11.25,0,0,1,.22-1.62,10.81,10.81,0,0,1,.48-1.75,6.12,6.12,0,0,1,.84-1.6A4.28,4.28,0,0,1,230.64,28a3.66,3.66,0,0,1,1.86-.45,4,4,0,0,1,2.84,1,4.85,4.85,0,0,1,1.26,3.09h-1.2A3.69,3.69,0,0,0,234.55,29.49Zm-3.41,5.11a3.06,3.06,0,0,0-1,.89,3.78,3.78,0,0,0-.65,1.3,5.56,5.56,0,0,0-.22,1.62,5.92,5.92,0,0,0,.19,1.57,3.58,3.58,0,0,0,.6,1.28,2.79,2.79,0,0,0,1,.87,3.37,3.37,0,0,0,1.5.31,2.51,2.51,0,0,0,1.31-.33,3.21,3.21,0,0,0,1-.87,4.32,4.32,0,0,0,.66-1.28,5.38,5.38,0,0,0,.22-1.55,5.9,5.9,0,0,0-.22-1.61,4.26,4.26,0,0,0-.62-1.31,3.16,3.16,0,0,0-1-.89,2.85,2.85,0,0,0-1.37-.32A3.19,3.19,0,0,0,231.14,34.6Z"/><path class="b" d="M239.77,40.29a3.78,3.78,0,0,0,.7,1.15,2.9,2.9,0,0,0,1,.74,3.12,3.12,0,0,0,1.28.26,2.74,2.74,0,0,0,1.39-.35,3.44,3.44,0,0,0,1-.94,4.32,4.32,0,0,0,.67-1.36,5.87,5.87,0,0,0,.23-1.62,5.17,5.17,0,0,0-.26-1.61,4.62,4.62,0,0,0-.7-1.29,3.45,3.45,0,0,0-1.08-.86,3.12,3.12,0,0,0-1.37-.31,3.28,3.28,0,0,0-1.7.48A3.58,3.58,0,0,0,239.66,36h-1L240,27.84h6.67v1.3h-5.83L240,34.32v0a3.44,3.44,0,0,1,1.26-1.07,3.39,3.39,0,0,1,1.56-.38,4.27,4.27,0,0,1,1.86.4,4.48,4.48,0,0,1,1.41,1.11,5,5,0,0,1,.89,1.72,7,7,0,0,1,.32,2.18,6,6,0,0,1-.36,2.11,5.16,5.16,0,0,1-1,1.67,4.44,4.44,0,0,1-1.48,1.1,4.32,4.32,0,0,1-1.8.39,4.41,4.41,0,0,1-1.72-.32,3.94,3.94,0,0,1-1.38-.94,4.68,4.68,0,0,1-.92-1.51,5.7,5.7,0,0,1-.36-2h1.2A4.29,4.29,0,0,0,239.77,40.29Z"/><path class="b" d="M30.79.17A32.11,32.11,0,0,1,57.71,10.35a35.92,35.92,0,0,1,9.7,21.74,36.3,36.3,0,0,1-8.08,25.36c-5.25,6.34-12.67,11.23-22.22,12-12.3,1-20.92-4-27.19-10.32a35.53,35.53,0,0,1-9.84-27,34.14,34.14,0,0,1,9.7-21.74,32.92,32.92,0,0,1,8.89-6.7A32.2,32.2,0,0,1,30.79.17ZM11.4,10H28.09C29.86,7,31.58,4,33.21.84,23.31,1.22,16.59,4.85,11.4,10Zm28.14,0H56.1C50.93,4.83,44.25,1.21,34.42.84,36,4,37.81,7,39.54,10ZM29,10h9.55C37,7,35.44,4.16,33.71,1.4,32.18,4.31,30.57,7.15,29,10Zm-18.18.83-.14,30,16.83-30Zm-.14,31.92v8.5h22.8V49h.62v2.29H56.91v-8.5L39.13,10.9H28.63ZM56.77,41V10.93H39.94Zm.81,1.53s3.18,5.91,5,8.64a36,36,0,0,0,3.64-21.88,35,35,0,0,0-8.49-17.7Zm-47.66,0L10,11.45A34.92,34.92,0,0,0,1,30.83,35.89,35.89,0,0,0,5,51ZM6,51.32h4V43.67Zm51.57,0h4l-4-7.11ZM9,56.75c.3.35.63,1.09,1.08.84V52.16H5.74A25.12,25.12,0,0,0,9,56.75Zm1.89,1.82H33.61V52.16H10.86Zm23.29,0H56.91V52.16H34.15ZM57.58,58c1.93-1.5,3-3.85,4.44-5.86H57.58Zm-1.35,1.39H34.15v7.69h-.58V59.45H11.36c15.57,15.73,37.44,8.64,44.87,0Z"/><path class="b" d="M28.5,26c.53,0,.41.6.94.56,2.7-.61,5.57,1.32,4.16,4a11.18,11.18,0,0,0-3.74.06,6.19,6.19,0,0,1-1.77-.16,2.82,2.82,0,0,1-1.19,2.42c-2.21-1.42-.9-5.35,1.33-5.8C28.37,26.75,28.31,26.23,28.5,26Z"/><path class="b" d="M41.37,26.45l.24.92c.88,1.33,2.2,2.22,1.83,4.86-.87,2.57-2.64,1.14-2.69-1.12-.5-.1-.58.24-1.08.14-1.16-1-3.54-.55-4.85-.42a4,4,0,0,1,5.53-3.9A4,4,0,0,0,41.37,26.45Z"/><path class="b" d="M34.15,32a2.42,2.42,0,0,1-.67,1.67c-2.81.19-4.26,2.27-4,5.16-3,0-3.39-5.52-.94-6.55.11-.55-.21-1,0-1.26C30,31.58,32.93,30,34.15,32Z"/><path class="b" d="M40.61,31.39c-.09,1.93,1.6,2.68,1.18,4.84a3.25,3.25,0,0,1-2.66,3c-.5-.6,0-1.16,0-1.82a4.27,4.27,0,0,0-3.77-3.89A2.15,2.15,0,0,1,35,31.7C36.58,30.11,39,31.86,40.61,31.39Z"/><path class="b" d="M30.38,39.75a3.61,3.61,0,0,1,1-4.88,14.55,14.55,0,0,1,2.11-1,6.47,6.47,0,0,0,.88-.78,4.05,4.05,0,0,1,.73.92,3.92,3.92,0,0,1,3.36,3c.25,1.31-.41,3.33-1.48,3.48s-1.6-1.07-2.56-1.11C33.09,39.28,31.64,41.22,30.38,39.75Z"/><path class="b" d="M26.34,33.76A5.52,5.52,0,0,0,29,39.61a3.4,3.4,0,0,1-2.16,1.26c-2.32.31-3.13-1.79-4.44-2.79.71-.59.37-1.67.67-2.51A2.82,2.82,0,0,1,26.34,33.76Z"/><path class="b" d="M42.1,34c3.13-.44,3,2.65,3.9,4.18-1,.81-1.56,2.85-3.23,3.07a3.68,3.68,0,0,1-3.36-1.68C41.86,38.78,42.52,36.81,42.1,34Z"/><path class="b" d="M30.51,41.71c-.39,2.51-1.42,4.36-3.36,5.29a9.71,9.71,0,0,1,2.29-5.71C30,41.2,30.2,41.52,30.51,41.71Z"/><path class="b" d="M34.42,41.43A9.91,9.91,0,0,1,34,47.7c-1.25-1.24-1.49-4.62-.54-6.41C33.92,41.2,34.1,41.38,34.42,41.43Z"/><path class="b" d="M40.48,47c-.9-.22-5.08-5.21-2.29-5.71A7.57,7.57,0,0,1,40.48,47Z"/></svg>